<svg width="70" height="70" fill="none" xmlns="http://www.w3.org/2000/svg">
  <path d="M69.943 9.896a1.168 1.168 0 0 0-.941-.793l-4.18-.608-1.87-3.787c-.391-.798-1.7-.798-2.091 0l-1.87 3.787-4.18.608a1.167 1.167 0 0 0-.648 1.99l3.026 2.947-.714 4.163c-.075.438.105.88.463 1.141.363.264.837.297 1.23.089l3.738-1.966 3.738 1.966a1.168 1.168 0 0 0 1.693-1.23l-.714-4.163 3.025-2.948a1.17 1.17 0 0 0 .295-1.196ZM64.556 12.8c-.275.267-.4.654-.335 1.032l.417 2.438-2.188-1.15a1.165 1.165 0 0 0-1.088 0l-2.188 1.15.417-2.438a1.168 1.168 0 0 0-.334-1.032l-1.773-1.727 2.448-.356c.38-.054.708-.294.879-.638l1.094-2.216 1.094 2.216c.17.344.498.584.879.638l2.448.356-1.77 1.727ZM57.167 44.892h-2.333v2.333h2.333v-2.333ZM57.167 49.56h-2.333v2.332h2.333V49.56ZM59.5 47.226h-2.333v2.333H59.5v-2.333ZM54.834 47.226H52.5v2.333h2.334v-2.333ZM49 57.726h-2.333v2.334H49v-2.334ZM49 62.393h-2.333v2.333H49v-2.333ZM51.334 60.06H49v2.332h2.334V60.06ZM46.667 60.06h-2.334v2.332h2.334V60.06ZM35 53.06h-2.333v2.332H35V53.06ZM35 57.726h-2.333v2.334H35v-2.334ZM37.333 55.393H35v2.333h2.333v-2.333ZM32.667 55.393h-2.334v2.333h2.334v-2.333ZM12.833 13.392H10.5v2.333h2.333v-2.333ZM12.833 18.059H10.5v2.333h2.333v-2.333ZM15.166 15.725h-2.333v2.333h2.333v-2.333ZM10.5 15.725H8.166v2.333H10.5v-2.333Z" fill="#2196F3"/>
  <path d="M54.064 30.974a3.88 3.88 0 0 0-2.6-1.541 3.886 3.886 0 0 0-2.93.77l-2.739 2.099h-.001l-4.151 3.1-2.97-1.182c5.296-2.377 8.998-7.675 8.998-13.826 0-8.362-6.83-15.166-15.227-15.166s-15.228 6.804-15.228 15.166c0 3.032.907 5.85 2.45 8.222l-6.046-.052h-.01c-.019 0-.034.009-.051.01a1.137 1.137 0 0 0-.34.068c-.028.01-.057.016-.084.029-.014.006-.028.007-.042.014l-7.072 3.492h-.003L1.877 34.17a.915.915 0 0 0-.138.077A3.895 3.895 0 0 0 .43 39.268a3.884 3.884 0 0 0 2.31 1.945 3.891 3.891 0 0 0 3.016-.281l3.036-1.615 4.952-2.557 2.968-.018L4.808 48.589s-.002 0-.003.002l-2.928 2.917a3.607 3.607 0 0 0-1.073 2.576 3.648 3.648 0 0 0 3.652 3.64c.936 0 1.869-.355 2.582-1.062L9.913 53.8l3.808-2.843 1.97 1.962-3.853 3.837-.004.003-2.928 2.916a3.607 3.607 0 0 0-1.073 2.576c0 .973.38 1.89 1.073 2.579a3.65 3.65 0 0 0 2.58 1.062c.935 0 1.87-.355 2.582-1.062l2.93-2.917 4.686-4.666.002-.004 2.21-2.188-.01-.008c.015-.014.035-.019.049-.034l11.3-12.377 7.593 1.08c.055.009.11.012.165.012.14 0 .277-.034.41-.084.038-.014.071-.033.108-.051.042-.021.086-.033.126-.06l7.029-4.666c.026-.018.04-.046.064-.065.028-.022.063-.03.089-.056l2.78-2.605a3.892 3.892 0 0 0 .465-5.166ZM4.66 38.872a1.56 1.56 0 0 1-1.221.114 1.565 1.565 0 0 1-.465-2.756l2.874-1.383.692 2.022.29.85-2.17 1.153Zm7.65-3.998-3.387 1.75-.558-1.633-.402-1.174 4.434-2.189-.087 3.246Zm33.03-14.482c0 2.009-.48 3.904-1.31 5.599l-9.147-4.155a4.07 4.07 0 0 0-1.724-3.035l3.203-10.632c5.2 1.654 8.978 6.506 8.978 12.223Zm-25.788 0c0-7.076 5.784-12.834 12.894-12.834.553 0 1.094.047 1.63.115l-3.133 10.399c-.042-.002-.081-.013-.125-.013a4.094 4.094 0 0 0-4.096 4.083 4.094 4.094 0 0 0 4.096 4.084c1.52 0 2.832-.84 3.54-2.067l8.45 3.839c-2.352 3.164-6.114 5.228-10.362 5.228-7.11 0-12.894-5.758-12.894-12.834Zm13.03 1.75c0 .965-.792 1.75-1.764 1.75a1.759 1.759 0 0 1-1.762-1.75c0-.965.79-1.75 1.762-1.75s1.763.785 1.763 1.75ZM5.391 55.008a1.33 1.33 0 0 1-1.87 0 1.299 1.299 0 0 1 0-1.846l2.105-2.097L7.49 52.92l-2.097 2.089Zm7.03 8.166a1.33 1.33 0 0 1-1.87.002 1.299 1.299 0 0 1 0-1.847l2.106-2.098.88.876.983.978-2.099 2.09Zm7.616-7.588-.003.003-3.86 3.85-.882-.877-.982-.977 3.857-3.84.004-.003a1.14 1.14 0 0 0 .196-.296c.015-.03.044-.056.057-.088.036-.09.042-.187.056-.281.007-.054.03-.104.03-.159 0-.078-.028-.154-.044-.231-.014-.07-.014-.141-.041-.209a1.166 1.166 0 0 0-.2-.3c-.022-.026-.03-.06-.054-.084h-.002s0-.003-.002-.004l-3.515-3.5c-.037-.038-.085-.053-.127-.084a1.128 1.128 0 0 0-.19-.126 1.091 1.091 0 0 0-.204-.072 1.134 1.134 0 0 0-.226-.043 1.142 1.142 0 0 0-.209.01c-.078.01-.151.02-.227.045-.074.023-.139.06-.206.098-.044.025-.093.033-.133.063l-3.88 2.896-1.97-1.963 5.248-5.22 9.538 9.382-2.029 2.01Zm14.917-15.349c-.034-.004-.066.009-.1.006a1.148 1.148 0 0 0-.252.015 1.081 1.081 0 0 0-.404.15c-.065.04-.124.081-.181.134-.028.024-.062.036-.088.064L23.653 51.862l-9.468-9.311 6.197-6.165a1.168 1.168 0 0 0-.83-1.993l-4.854.028.061-3.516 6.79.058a15.2 15.2 0 0 0 10.897 4.596c.957 0 1.89-.1 2.799-.268.087.07.174.14.283.185l5.272 2.1.333 1.66.39 1.936-6.569-.935Zm8.84.39-.685-3.408 3.164-2.362.828 1.099 1.242 1.65-4.55 3.021Zm8.21-6.193-1.832 1.718-2.037-2.705 1.818-1.394c.34-.261.768-.367 1.188-.312.422.059.796.28 1.05.621a1.562 1.562 0 0 1-.187 2.072Z" fill="#212121"/>
  <path d="m29.755 40.565-4.688-4.667a1.166 1.166 0 0 0-1.646 0l-4.687 4.667a1.172 1.172 0 0 0 0 1.654l4.686 4.667a1.166 1.166 0 0 0 1.647 0l4.688-4.667a1.167 1.167 0 0 0 0-1.654Zm-5.51 3.848-3.034-3.02 3.033-3.021 3.035 3.02-3.035 3.02ZM37.547 11.092l-.564 2.266c.156.039 3.801.988 3.801 4.7h2.334c0-4.412-3.644-6.486-5.571-6.966ZM43.118 20.392h-2.334v2.334h2.334v-2.334Z" fill="#212121"/>
</svg>
